<svg version="1.1" id="Layer_1" xmlns="http://www.w3.org/2000/svg" xmlns:xlink="http://www.w3.org/1999/xlink" x="0px"
	y="0px" width="100%" viewBox="0 0 563 140" enable-background="new 0 0 563 140" xml:space="preserve">
	<path fill="#FEFEFE" opacity="1.000000" stroke="none" d="
M408.000000,141.000000 
	C272.000000,141.000000 136.500000,141.000000 1.000000,141.000000 
	C1.000000,94.333336 1.000000,47.666668 1.000000,1.000000 
	C188.666672,1.000000 376.333344,1.000000 564.000000,1.000000 
	C564.000000,47.666668 564.000000,94.333336 564.000000,141.000000 
	C512.166687,141.000000 460.333344,141.000000 408.000000,141.000000 
M55.843536,84.647186 
	C56.200504,85.146004 56.557468,85.644814 57.027210,86.784714 
	C57.666344,87.898682 58.305473,89.012642 58.931007,90.519295 
	C58.953827,90.799301 59.078484,91.022415 59.425945,91.952972 
	C59.682327,92.951859 59.938713,93.950752 60.110634,95.775978 
	C59.646618,98.426758 59.182606,101.077538 58.731117,103.656754 
	C62.022907,102.270424 62.550907,100.671837 61.904385,93.349579 
	C61.943733,92.902809 61.983082,92.456039 62.758377,92.180389 
	C73.513840,93.803574 84.256615,95.519875 95.033180,96.988205 
	C97.934441,97.383514 99.967636,95.971779 100.788734,92.796982 
	C101.612053,89.613594 100.500404,87.477211 97.774956,86.323486 
	C93.251808,84.408760 88.588882,82.824249 83.289337,80.765526 
	C78.129128,79.485741 72.968925,78.205963 67.606613,76.913376 
	C67.606613,76.913376 67.404381,76.924194 66.528099,76.942688 
	C63.923679,76.600754 61.319256,76.258827 58.262840,75.905037 
	C57.961353,75.901779 57.659966,75.905792 56.415997,75.969009 
	C54.573746,76.115685 52.731499,76.262352 50.228348,76.123428 
	C48.527687,75.095932 46.911579,73.878838 45.110817,73.075829 
	C39.281479,70.476372 33.437202,68.902580 27.416533,74.353729 
	C23.396049,77.968353 21.779844,82.299515 22.842178,87.753891 
	C24.945038,98.550644 36.357464,109.599937 47.095333,110.795570 
	C51.045036,111.235359 54.648529,110.543472 56.615978,106.297134 
	C41.501038,104.446716 33.583878,99.801857 29.360136,89.068802 
	C27.964256,85.521706 28.737385,81.121048 29.402229,77.532501 
	C28.096457,83.536736 30.813511,86.425446 36.629467,87.230492 
	C38.001614,87.420425 40.165344,88.315376 40.395432,89.265907 
	C41.671314,94.536850 45.764721,97.143860 49.583855,100.151321 
	C51.305561,101.507111 52.917358,104.722908 54.994019,101.894470 
	C56.255184,100.176743 55.810349,96.827042 55.334663,94.364471 
	C55.074619,93.018257 53.359821,91.512520 51.946579,90.909561 
	C47.086308,88.835938 45.011806,84.806107 42.983532,80.297562 
	C40.144661,73.987183 38.338074,73.554939 31.313696,75.042938 
	C33.852360,74.410622 36.522480,72.961372 38.897888,73.343605 
	C42.195568,73.874245 45.272076,75.779419 48.890266,77.673714 
	C50.153179,78.750793 51.416092,79.827866 52.931107,81.411255 
	C53.947063,82.285263 54.963017,83.159271 56.000729,83.999924 
	C56.000729,83.999924 55.967091,84.021065 55.843536,84.647186 
M419.287750,89.813347 
	C415.958160,88.653450 412.769623,87.345825 412.010101,82.469757 
	C423.484192,82.469757 434.664856,82.469757 445.736420,82.469757 
	C447.327698,68.764259 440.804993,58.611305 429.274261,56.024704 
	C416.811249,53.228973 403.877197,59.889294 400.583466,70.798851 
	C397.117615,82.278648 402.433502,94.351204 412.882507,98.730530 
	C424.504272,103.601372 437.984833,99.920059 443.089081,90.368332 
	C441.405762,89.323990 439.824646,87.951897 437.988861,87.321953 
	C436.381958,86.770531 433.892548,86.282310 432.828827,87.105194 
	C428.922302,90.127205 424.712616,90.642776 419.287750,89.813347 
M308.746582,85.500809 
	C308.833588,81.171616 308.657013,76.816452 309.080231,72.520378 
	C309.521088,68.045692 313.342468,65.037170 317.688934,65.133286 
	C322.134399,65.231590 324.715515,67.784737 325.196564,72.792328 
	C325.418823,75.105896 325.386169,77.447945 325.394409,79.777344 
	C325.417755,86.381546 325.402588,92.985878 325.402588,99.491859 
	C329.899475,99.491859 333.641327,99.491859 337.127106,99.491859 
	C337.127106,88.832634 337.749634,78.495239 336.932953,68.272835 
	C336.262268,59.877712 330.945465,55.460423 322.497620,55.401283 
	C318.043732,55.370102 313.577606,57.086361 309.246246,57.986755 
	C306.028595,53.645767 301.296082,57.011730 297.189423,55.911888 
	C297.189423,70.872520 297.189423,85.123383 297.189423,99.599174 
	C301.038239,99.599174 304.610626,99.599174 308.746399,99.599174 
	C308.746399,95.068787 308.746399,90.780998 308.746582,85.500809 
M225.825729,96.789429 
	C238.541428,104.347893 254.471985,100.202202 260.379944,87.797203 
	C265.633545,76.766144 261.621674,64.172249 250.964951,58.241825 
	C239.935608,52.104038 225.048904,55.899025 218.512207,66.514824 
	C212.408524,76.427376 215.257568,89.111015 225.825729,96.789429 
M383.425323,57.923302 
	C376.040070,53.660862 368.846191,54.467281 361.990082,58.824821 
	C358.432037,53.400673 353.615753,57.058231 349.446564,55.987221 
	C349.446564,70.959404 349.446564,85.185081 349.446564,99.457115 
	C353.455048,99.457115 357.152496,99.457115 361.077667,99.457115 
	C361.077667,93.248528 361.052521,87.433067 361.088104,81.617973 
	C361.106415,78.630524 360.908875,75.591110 361.383362,72.668434 
	C362.184692,67.732460 365.943054,64.792030 370.373169,65.105751 
	C374.817474,65.420464 377.487000,68.277756 377.847260,73.486633 
	C378.064850,76.632851 377.915863,79.804901 377.919037,82.965355 
	C377.924622,88.531952 377.920624,94.098557 377.920624,99.589935 
	C382.380402,99.589935 385.981873,99.589935 389.813049,99.589935 
	C389.813049,89.235039 390.316467,79.098701 389.550964,69.059113 
	C389.267639,65.342926 386.002106,61.854118 383.425323,57.923302 
M492.437347,96.002090 
	C494.557556,93.578758 496.677765,91.155426 499.827820,87.555008 
	C494.396393,87.711075 491.570892,81.526009 486.683990,86.592941 
	C481.902679,91.550316 473.669800,91.401566 469.197021,86.731621 
	C464.756805,82.095612 464.886719,73.425072 469.462616,69.004227 
	C474.179474,64.447212 481.759888,64.960220 486.867767,70.005417 
	C487.723816,70.850929 489.420990,71.694511 490.398254,71.408195 
	C493.321838,70.551628 496.081055,69.134018 499.016357,67.887947 
	C493.773773,59.158173 486.349579,55.071087 476.827728,55.397152 
	C467.684875,55.710239 460.603394,60.087521 456.353485,68.256493 
	C451.716156,77.170166 453.980011,87.832947 461.525085,94.605980 
	C469.886993,102.112251 481.968842,102.874283 492.437347,96.002090 
M177.922333,84.338654 
	C175.180435,77.498497 176.285416,71.592552 180.936493,68.228416 
	C186.556351,64.163567 191.933823,65.207047 199.496399,71.949074 
	C202.577637,70.723526 205.751907,69.460983 208.940140,68.192879 
	C204.357025,58.248608 193.730713,53.530384 182.094849,56.002724 
	C172.248764,58.094784 163.827942,68.691620 164.225983,78.489037 
	C164.651031,88.950912 172.699478,97.958885 182.931885,100.237846 
	C193.299988,102.547020 206.178665,97.430969 208.682938,87.756584 
	C205.662979,86.565170 202.614594,85.362534 199.648407,84.192329 
	C191.251968,92.212372 184.703964,92.415268 177.922333,84.338654 
M525.456848,55.138000 
	C524.504944,54.173084 522.888977,53.304852 522.731689,52.224239 
	C522.336670,49.511074 522.601135,46.701889 522.601135,43.674458 
	C518.352295,43.674458 514.776367,43.674458 510.631470,43.674458 
	C510.631470,47.436565 510.631470,51.008293 510.631470,54.602154 
	C508.550964,55.043556 507.005432,55.371456 505.517487,55.687141 
	C505.517487,59.102333 505.517487,62.207554 505.517487,65.398697 
	C507.297455,65.779114 508.849091,66.110733 510.905090,66.550140 
	C510.905090,75.011459 510.876495,83.319626 510.917114,91.627464 
	C510.937439,95.789780 513.060974,98.894547 516.982239,99.744186 
	C521.388550,100.698936 526.002869,100.694176 530.609741,101.114410 
	C530.609741,96.954353 530.609741,93.894524 530.609741,90.889008 
	C527.312073,90.097145 522.985229,91.315956 522.868835,86.252579 
	C522.717102,79.647110 522.831726,73.035515 522.831726,66.137062 
	C525.628113,65.938873 528.187073,65.757507 530.664307,65.581932 
	C530.664307,61.930695 530.664307,58.694241 530.664307,55.142826 
	C529.012634,55.142826 527.707031,55.142826 525.456848,55.138000 
M64.478813,54.022560 
	C53.913116,54.664242 43.329975,55.113407 32.792629,56.068047 
	C29.736809,56.344894 26.779127,57.744804 26.938599,62.118359 
	C27.097460,66.475067 30.189764,67.642441 33.211903,67.840561 
	C44.765488,68.597969 56.347012,69.051346 67.924355,69.245552 
	C71.164001,69.299889 74.465630,68.229401 77.663971,67.389786 
	C80.382812,66.676041 82.210495,65.241951 82.193146,61.812210 
	C82.175858,58.392036 80.451286,56.914688 77.626328,56.297249 
	C73.579796,55.412815 69.477966,54.781437 64.478813,54.022560 
M112.879822,44.350597 
	C116.837967,42.269543 120.908890,40.372330 124.712326,38.039082 
	C127.026154,36.619640 129.211792,34.238281 127.103615,31.445942 
	C125.740578,29.640570 123.062035,27.488562 121.151840,27.647079 
	C105.197212,28.971090 90.276031,33.765877 76.920532,42.747879 
	C75.596626,43.638248 74.878006,46.214001 74.829430,48.032909 
	C74.754860,50.824528 76.530899,52.660496 79.523392,52.732113 
	C81.340988,52.775612 83.250885,52.887058 84.971062,52.420910 
	C94.078125,49.953011 103.138161,47.311581 112.879822,44.350597 
M285.077301,70.504166 
	C285.077301,65.750458 285.077301,60.996742 285.077301,56.401146 
	C280.659546,56.401146 276.944061,56.401146 273.431885,56.401146 
	C273.431885,71.042839 273.431885,85.274803 273.431885,99.588654 
	C277.395020,99.588654 280.985474,99.588654 285.077271,99.588654 
	C285.077271,90.059822 285.077271,80.781525 285.077301,70.504166 
M134.340836,73.728516 
	C135.139420,71.724716 136.167847,69.779068 136.692337,67.705925 
	C138.109970,62.102200 136.765915,57.251884 132.406845,53.261803 
	C128.097977,49.317684 123.084564,48.902386 117.981125,50.728413 
	C109.107262,53.903503 102.735252,60.026226 99.012604,68.697090 
	C95.984924,75.749222 96.939339,80.713104 101.863739,85.529457 
	C106.427834,89.993408 112.106529,90.866920 118.668282,88.113930 
	C125.358086,85.307220 130.256912,80.499176 134.340836,73.728516 
M277.982544,38.796074 
	C273.881317,39.657482 271.932892,42.213799 272.812012,46.293152 
	C273.580139,49.857269 276.203552,51.400043 279.832275,51.092846 
	C283.341858,50.795731 285.467499,48.599735 285.549408,45.355053 
	C285.657654,41.069866 283.137604,38.674618 277.982544,38.796074 
z" />
	<path fill="#676261" opacity="1.000000" stroke="none" d="
M419.699341,89.902039 
	C424.712616,90.642776 428.922302,90.127205 432.828827,87.105194 
	C433.892548,86.282310 436.381958,86.770531 437.988861,87.321953 
	C439.824646,87.951897 441.405762,89.323990 443.089081,90.368332 
	C437.984833,99.920059 424.504272,103.601372 412.882507,98.730530 
	C402.433502,94.351204 397.117615,82.278648 400.583466,70.798851 
	C403.877197,59.889294 416.811249,53.228973 429.274261,56.024704 
	C440.804993,58.611305 447.327698,68.764259 445.736420,82.469757 
	C434.664856,82.469757 423.484192,82.469757 412.010101,82.469757 
	C412.769623,87.345825 415.958160,88.653450 419.699341,89.902039 
M428.301880,74.008141 
	C429.874512,73.928932 431.447113,73.849724 433.089050,73.767021 
	C431.667053,68.068535 428.706604,65.822281 423.111389,65.872734 
	C416.805511,65.929604 413.637604,68.279709 412.459076,73.778381 
	C412.776184,73.846741 413.093048,73.973267 413.410492,73.974693 
	C418.055664,73.995689 422.700958,74.000000 428.301880,74.008141 
z" />
	<path fill="#6A6564" opacity="1.000000" stroke="none" d="
M308.746490,85.997009 
	C308.746399,90.780998 308.746399,95.068787 308.746399,99.599174 
	C304.610626,99.599174 301.038239,99.599174 297.189423,99.599174 
	C297.189423,85.123383 297.189423,70.872520 297.189423,55.911888 
	C301.296082,57.011730 306.028595,53.645767 309.246246,57.986755 
	C313.577606,57.086361 318.043732,55.370102 322.497620,55.401283 
	C330.945465,55.460423 336.262268,59.877712 336.932953,68.272835 
	C337.749634,78.495239 337.127106,88.832634 337.127106,99.491859 
	C333.641327,99.491859 329.899475,99.491859 325.402588,99.491859 
	C325.402588,92.985878 325.417755,86.381546 325.394409,79.777344 
	C325.386169,77.447945 325.418823,75.105896 325.196564,72.792328 
	C324.715515,67.784737 322.134399,65.231590 317.688934,65.133286 
	C313.342468,65.037170 309.521088,68.045692 309.080231,72.520378 
	C308.657013,76.816452 308.833588,81.171616 308.746490,85.997009 
z" />
	<path fill="#FFDF00" opacity="1.000000" stroke="none" d="
M225.521652,96.577919 
	C215.257568,89.111015 212.408524,76.427376 218.512207,66.514824 
	C225.048904,55.899025 239.935608,52.104038 250.964951,58.241825 
	C261.621674,64.172249 265.633545,76.766144 260.379944,87.797203 
	C254.471985,100.202202 238.541428,104.347893 225.521652,96.577919 
M230.520035,87.013412 
	C231.462646,87.674011 232.342911,88.457069 233.358566,88.974236 
	C237.984467,91.329720 243.721069,90.528061 247.171265,87.123810 
	C250.889633,83.454948 252.032578,77.606323 249.951767,72.895660 
	C247.801422,68.027603 243.480362,65.471001 238.015884,65.833618 
	C228.116028,66.490570 224.084167,76.860901 230.520035,87.013412 
z" />
	<path fill="#686362" opacity="1.000000" stroke="none" d="
M383.760986,58.092453 
	C386.002106,61.854118 389.267639,65.342926 389.550964,69.059113 
	C390.316467,79.098701 389.813049,89.235039 389.813049,99.589935 
	C385.981873,99.589935 382.380402,99.589935 377.920624,99.589935 
	C377.920624,94.098557 377.924622,88.531952 377.919037,82.965355 
	C377.915863,79.804901 378.064850,76.632851 377.847260,73.486633 
	C377.487000,68.277756 374.817474,65.420464 370.373169,65.105751 
	C365.943054,64.792030 362.184692,67.732460 361.383362,72.668434 
	C360.908875,75.591110 361.106415,78.630524 361.088104,81.617973 
	C361.052521,87.433067 361.077667,93.248528 361.077667,99.457115 
	C357.152496,99.457115 353.455048,99.457115 349.446564,99.457115 
	C349.446564,85.185081 349.446564,70.959404 349.446564,55.987221 
	C353.615753,57.058231 358.432037,53.400673 361.990082,58.824821 
	C368.846191,54.467281 376.040070,53.660862 383.760986,58.092453 
z" />
	<path fill="#686362" opacity="1.000000" stroke="none" d="
M492.174561,96.262299 
	C481.968842,102.874283 469.886993,102.112251 461.525085,94.605980 
	C453.980011,87.832947 451.716156,77.170166 456.353485,68.256493 
	C460.603394,60.087521 467.684875,55.710239 476.827728,55.397152 
	C486.349579,55.071087 493.773773,59.158173 499.016357,67.887947 
	C496.081055,69.134018 493.321838,70.551628 490.398254,71.408195 
	C489.420990,71.694511 487.723816,70.850929 486.867767,70.005417 
	C481.759888,64.960220 474.179474,64.447212 469.462616,69.004227 
	C464.886719,73.425072 464.756805,82.095612 469.197021,86.731621 
	C473.669800,91.401566 481.902679,91.550316 486.683990,86.592941 
	C491.570892,81.526009 494.396393,87.711075 499.827820,87.555008 
	C496.677765,91.155426 494.557556,93.578758 492.174561,96.262299 
z" />
	<path fill="#686362" opacity="1.000000" stroke="none" d="
M178.120193,84.666870 
	C184.703964,92.415268 191.251968,92.212372 199.648407,84.192329 
	C202.614594,85.362534 205.662979,86.565170 208.682938,87.756584 
	C206.178665,97.430969 193.299988,102.547020 182.931885,100.237846 
	C172.699478,97.958885 164.651031,88.950912 164.225983,78.489037 
	C163.827942,68.691620 172.248764,58.094784 182.094849,56.002724 
	C193.730713,53.530384 204.357025,58.248608 208.940140,68.192879 
	C205.751907,69.460983 202.577637,70.723526 199.496399,71.949074 
	C191.933823,65.207047 186.556351,64.163567 180.936493,68.228416 
	C176.285416,71.592552 175.180435,77.498497 178.120193,84.666870 
z" />
	<path fill="#696564" opacity="1.000000" stroke="none" d="
M525.929077,55.140411 
	C527.707031,55.142826 529.012634,55.142826 530.664307,55.142826 
	C530.664307,58.694241 530.664307,61.930695 530.664307,65.581932 
	C528.187073,65.757507 525.628113,65.938873 522.831726,66.137062 
	C522.831726,73.035515 522.717102,79.647110 522.868835,86.252579 
	C522.985229,91.315956 527.312073,90.097145 530.609741,90.889008 
	C530.609741,93.894524 530.609741,96.954353 530.609741,101.114410 
	C526.002869,100.694176 521.388550,100.698936 516.982239,99.744186 
	C513.060974,98.894547 510.937439,95.789780 510.917114,91.627464 
	C510.876495,83.319626 510.905090,75.011459 510.905090,66.550140 
	C508.849091,66.110733 507.297455,65.779114 505.517487,65.398697 
	C505.517487,62.207554 505.517487,59.102333 505.517487,55.687141 
	C507.005432,55.371456 508.550964,55.043556 510.631470,54.602154 
	C510.631470,51.008293 510.631470,47.436565 510.631470,43.674458 
	C514.776367,43.674458 518.352295,43.674458 522.601135,43.674458 
	C522.601135,46.701889 522.336670,49.511074 522.731689,52.224239 
	C522.888977,53.304852 524.504944,54.173084 525.929077,55.140411 
z" />
	<path fill="#F6C324" opacity="1.000000" stroke="none" d="
M64.939278,54.032288 
	C69.477966,54.781437 73.579796,55.412815 77.626328,56.297249 
	C80.451286,56.914688 82.175858,58.392036 82.193146,61.812210 
	C82.210495,65.241951 80.382812,66.676041 77.663971,67.389786 
	C74.465630,68.229401 71.164001,69.299889 67.924355,69.245552 
	C56.347012,69.051346 44.765488,68.597969 33.211903,67.840561 
	C30.189764,67.642441 27.097460,66.475067 26.938599,62.118359 
	C26.779127,57.744804 29.736809,56.344894 32.792629,56.068047 
	C43.329975,55.113407 53.913116,54.664242 64.939278,54.032288 
M36.947186,58.721806 
	C46.121666,58.525509 55.296146,58.329212 64.470627,58.132915 
	C64.454498,57.572960 64.438370,57.013004 64.422241,56.453049 
	C54.963455,55.297230 45.505520,55.683411 35.312637,57.154388 
	C33.298878,57.925034 31.285120,58.695675 29.271362,59.466320 
	C29.289047,59.919525 29.306732,60.372730 29.324417,60.825935 
	C31.899828,61.482552 34.475239,62.139168 37.893776,62.961433 
	C48.702095,64.411316 59.482086,64.707497 70.211960,62.962322 
	C70.203415,62.487854 70.194878,62.013382 70.186333,61.538910 
	C59.121174,61.538910 48.056019,61.538910 36.436119,61.219986 
	C35.668777,60.773796 34.901436,60.327606 34.134094,59.881416 
	C34.785797,59.465153 35.437500,59.048885 36.947186,58.721806 
z" />
	<path fill="#F6C324" opacity="1.000000" stroke="none" d="
M112.547165,44.540443 
	C103.138161,47.311581 94.078125,49.953011 84.971062,52.420910 
	C83.250885,52.887058 81.340988,52.775612 79.523392,52.732113 
	C76.530899,52.660496 74.754860,50.824528 74.829430,48.032909 
	C74.878006,46.214001 75.596626,43.638248 76.920532,42.747879 
	C90.276031,33.765877 105.197212,28.971090 121.151840,27.647079 
	C123.062035,27.488562 125.740578,29.640570 127.103615,31.445942 
	C129.211792,34.238281 127.026154,36.619640 124.712326,38.039082 
	C120.908890,40.372330 116.837967,42.269543 112.547165,44.540443 
M78.096512,45.315464 
	C78.191765,45.361126 78.287018,45.406788 78.382271,45.452446 
	C78.265488,45.293163 78.148705,45.133877 77.906952,44.689762 
	C77.809601,44.645100 77.712257,44.600437 77.614906,44.555779 
	C77.734085,44.715443 77.853256,44.875107 78.096512,45.315464 
M82.375481,45.853149 
	C80.850426,47.103138 79.325371,48.353127 77.800316,49.603115 
	C78.053940,50.154980 78.307564,50.706841 78.561188,51.258705 
	C84.731117,50.231922 90.901047,49.205143 96.771950,48.228127 
	C96.500015,45.843838 96.339134,44.433254 96.016075,41.600670 
	C91.598190,42.906567 87.301933,44.176514 82.375481,45.853149 
M116.209587,40.686897 
	C119.469070,38.725578 122.728561,36.764259 126.893028,34.258389 
	C115.431290,31.455296 110.390419,34.417576 109.986702,43.428234 
	C111.965042,42.551548 113.746101,41.762287 116.209587,40.686897 
M76.508133,47.361515 
	C76.508133,47.361515 76.404633,47.542149 76.404633,47.542149 
	C76.404633,47.542149 76.612740,47.516335 76.508133,47.361515 
z" />
	<path fill="#676362" opacity="1.000000" stroke="none" d="
M285.077271,71.003693 
	C285.077271,80.781525 285.077271,90.059822 285.077271,99.588654 
	C280.985474,99.588654 277.395020,99.588654 273.431885,99.588654 
	C273.431885,85.274803 273.431885,71.042839 273.431885,56.401146 
	C276.944061,56.401146 280.659546,56.401146 285.077301,56.401146 
	C285.077301,60.996742 285.077301,65.750458 285.077271,71.003693 
z" />
	<path fill="#F6C324" opacity="1.000000" stroke="none" d="
M134.168610,74.062149 
	C130.256912,80.499176 125.358086,85.307220 118.668282,88.113930 
	C112.106529,90.866920 106.427834,89.993408 101.863739,85.529457 
	C96.939339,80.713104 95.984924,75.749222 99.012604,68.697090 
	C102.735252,60.026226 109.107262,53.903503 117.981125,50.728413 
	C123.084564,48.902386 128.097977,49.317684 132.406845,53.261803 
	C136.765915,57.251884 138.109970,62.102200 136.692337,67.705925 
	C136.167847,69.779068 135.139420,71.724716 134.168610,74.062149 
M108.413376,59.063240 
	C108.236206,59.338448 108.059029,59.613659 107.266708,60.174984 
	C102.790787,64.689972 99.723953,69.890198 99.737389,76.447083 
	C99.748734,81.981911 102.967026,85.049561 108.472839,85.006470 
	C119.696426,84.918633 132.677719,71.337311 132.222443,60.159088 
	C132.006256,54.851162 128.873032,51.179298 123.710587,52.155796 
	C118.925797,53.060860 114.512344,55.929096 109.450127,58.077736 
	C109.260948,58.347889 109.071770,58.618042 108.413376,59.063240 
z" />
	<path fill="#F6C324" opacity="1.000000" stroke="none" d="
M31.574430,76.020180 
	C38.338074,73.554939 40.144661,73.987183 42.983532,80.297562 
	C45.011806,84.806107 47.086308,88.835938 51.946579,90.909561 
	C53.359821,91.512520 55.074619,93.018257 55.334663,94.364471 
	C55.810349,96.827042 56.255184,100.176743 54.994019,101.894470 
	C52.917358,104.722908 51.305561,101.507111 49.583855,100.151321 
	C45.764721,97.143860 41.671314,94.536850 40.395432,89.265907 
	C40.165344,88.315376 38.001614,87.420425 36.629467,87.230492 
	C30.813511,86.425446 28.096457,83.536736 29.020700,77.328064 
	C28.770014,76.943436 28.882725,76.753189 29.082733,76.487305 
	C29.188166,76.421707 29.299816,76.200211 29.374203,76.599983 
	C30.041864,76.740044 30.635139,76.480331 31.323936,76.214653 
	C31.419456,76.208694 31.508404,76.039200 31.540916,76.034073 
	C31.573431,76.028938 31.574430,76.020180 31.574430,76.020180 
z" />
	<path fill="#F6C324" opacity="1.000000" stroke="none" d="
M28.977303,76.552895 
	C28.882725,76.753189 28.770014,76.943436 28.578978,77.117142 
	C28.737385,81.121048 27.964256,85.521706 29.360136,89.068802 
	C33.583878,99.801857 41.501038,104.446716 56.615978,106.297134 
	C54.648529,110.543472 51.045036,111.235359 47.095333,110.795570 
	C36.357464,109.599937 24.945038,98.550644 22.842178,87.753891 
	C21.779844,82.299515 23.396049,77.968353 27.879202,74.456451 
	C28.666849,74.756561 28.991827,74.953941 29.213858,75.497345 
	C29.066376,76.079872 29.021839,76.316383 28.977303,76.552895 
z" />
	<path fill="#F6C324" opacity="1.000000" stroke="none" d="
M83.984833,81.100639 
	C88.588882,82.824249 93.251808,84.408760 97.774956,86.323486 
	C100.500404,87.477211 101.612053,89.613594 100.788734,92.796982 
	C99.967636,95.971779 97.934441,97.383514 95.033180,96.988205 
	C84.256615,95.519875 73.513840,93.803574 62.159946,91.996529 
	C61.374496,91.541878 61.187477,91.271095 61.139225,90.945404 
	C61.185207,90.926796 61.092422,90.963097 60.574787,91.036072 
	C59.868282,91.111374 59.586628,91.150009 59.304977,91.188637 
	C59.078484,91.022415 58.953827,90.799301 59.068794,90.027664 
	C60.805065,85.885391 63.112118,89.697983 64.994766,88.993362 
	C64.999847,88.999733 65.012299,89.009590 65.200874,89.261810 
	C67.209053,89.284042 69.028656,89.054047 71.886955,88.692757 
	C72.460762,89.368774 73.970306,91.147224 74.878647,92.217361 
	C77.548378,91.384293 79.859383,90.663170 82.582321,89.956688 
	C88.166527,90.460045 93.338799,90.948761 98.511078,91.437469 
	C98.676033,90.653168 98.840996,89.868858 99.005951,89.084557 
	C93.946754,86.971596 88.887550,84.858635 83.871536,82.334801 
	C83.938087,81.649498 83.961464,81.375069 83.984833,81.100639 
M70.417816,91.480408 
	C70.417816,91.480408 70.529938,91.409264 70.417816,91.480408 
z" />
	<path fill="#F6C324" opacity="1.000000" stroke="none" d="
M83.637085,80.933083 
	C83.961464,81.375069 83.938087,81.649498 83.560822,82.328506 
	C81.843979,84.053047 80.481041,85.373001 79.466911,86.355141 
	C80.317589,87.483795 81.243988,88.712914 82.170380,89.942039 
	C79.859383,90.663170 77.548378,91.384293 74.878647,92.217361 
	C73.970306,91.147224 72.460762,89.368774 71.886955,88.692757 
	C69.028656,89.054047 67.209053,89.284042 65.342880,89.204117 
	C65.194099,88.925133 65.091896,88.956062 64.989693,88.986984 
	C63.112118,89.697983 60.805065,85.885391 59.075592,89.831322 
	C58.305473,89.012642 57.666344,87.898682 57.148796,86.170662 
	C57.643269,85.294907 58.016151,85.033203 58.778748,84.801834 
	C61.997524,84.281311 64.826591,83.730453 67.450676,83.219521 
	C67.584129,80.873863 67.696419,78.900017 67.808716,76.926178 
	C72.968925,78.205963 78.129128,79.485741 83.637085,80.933083 
M73.418335,81.336304 
	C73.955055,81.472397 74.490311,81.616974 75.034256,81.711479 
	C75.054596,81.715012 75.159546,81.231560 75.225067,80.975044 
	C74.610146,80.908180 73.995216,80.841316 73.418335,81.336304 
M70.994911,80.294357 
	C71.233307,80.218948 71.471695,80.143539 71.710091,80.068130 
	C71.440948,79.802269 71.171806,79.536400 70.902672,79.270538 
	C70.829086,79.509117 70.755501,79.747688 70.994911,80.294357 
M76.387138,89.525116 
	C76.165497,89.469009 75.943863,89.412903 75.722221,89.356796 
	C75.864616,89.495155 76.007011,89.633522 76.387138,89.525116 
z" />
	<path fill="#6A6564" opacity="1.000000" stroke="none" d="
M278.331970,38.729889 
	C283.137604,38.674618 285.657654,41.069866 285.549408,45.355053 
	C285.467499,48.599735 283.341858,50.795731 279.832275,51.092846 
	C276.203552,51.400043 273.580139,49.857269 272.812012,46.293152 
	C271.932892,42.213799 273.881317,39.657482 278.331970,38.729889 
z" />
	<path fill="#F6C324" opacity="1.000000" stroke="none" d="
M67.707664,76.919777 
	C67.696419,78.900017 67.584129,80.873863 67.450676,83.219521 
	C64.826591,83.730453 61.997524,84.281311 58.524918,84.531570 
	C57.243279,84.161003 56.605186,84.091034 55.967091,84.021057 
	C55.967091,84.021065 56.000729,83.999924 56.228863,83.717934 
	C55.321198,81.923264 54.185398,80.410591 53.245201,78.556648 
	C54.746765,77.449272 56.052719,76.683167 57.358673,75.917061 
	C57.659966,75.905792 57.961353,75.901779 58.336441,76.369255 
	C61.394520,78.215645 64.371597,80.331284 67.404381,76.924194 
	C67.404381,76.924194 67.606613,76.913376 67.707664,76.919777 
z" />
	<path fill="#F6C324" opacity="1.000000" stroke="none" d="
M29.316803,75.151321 
	C28.991827,74.953941 28.666849,74.756561 28.186304,74.317184 
	C33.437202,68.902580 39.281479,70.476372 45.110817,73.075829 
	C46.911579,73.878838 48.527687,75.095932 50.300148,76.459534 
	C49.729057,76.895805 49.086166,76.995964 48.443272,77.096130 
	C45.272076,75.779419 42.195568,73.874245 38.897888,73.343605 
	C36.522480,72.961372 33.852360,74.410622 31.444063,75.531555 
	C31.574430,76.020180 31.573431,76.028938 31.570158,75.634438 
	C30.816858,75.210403 30.066832,75.180862 29.316803,75.151321 
z" />
	<path fill="#F6C324" opacity="1.000000" stroke="none" d="
M61.797478,94.016144 
	C62.550907,100.671837 62.022907,102.270424 58.731117,103.656754 
	C59.182606,101.077538 59.646618,98.426758 60.363548,95.264694 
	C61.010136,94.507645 61.403805,94.261894 61.797478,94.016144 
z" />
	<path fill="#F6C324" opacity="1.000000" stroke="none" d="
M48.666771,77.384918 
	C49.086166,76.995964 49.729057,76.895805 50.630600,76.602333 
	C52.731499,76.262352 54.573746,76.115685 56.887337,75.943039 
	C56.052719,76.683167 54.746765,77.449272 53.159065,79.059631 
	C52.811214,80.237572 52.745113,80.571251 52.679008,80.904938 
	C51.416092,79.827866 50.153179,78.750793 48.666771,77.384918 
z" />
	<path fill="#F6C324" opacity="1.000000" stroke="none" d="
M66.966240,76.933441 
	C64.371597,80.331284 61.394520,78.215645 58.562439,76.375183 
	C61.319256,76.258827 63.923679,76.600754 66.966240,76.933441 
z" />
	<path fill="#F6C324" opacity="1.000000" stroke="none" d="
M52.805058,81.158096 
	C52.745113,80.571251 52.811214,80.237572 52.963459,79.400902 
	C54.185398,80.410591 55.321198,81.923264 56.217987,83.734612 
	C54.963017,83.159271 53.947063,82.285263 52.805058,81.158096 
z" />
	<path fill="#F6C324" opacity="1.000000" stroke="none" d="
M61.850929,93.682861 
	C61.403805,94.261894 61.010136,94.507645 60.405781,94.851517 
	C59.938713,93.950752 59.682327,92.951859 59.365463,91.570801 
	C59.586628,91.150009 59.868282,91.111374 60.574966,91.036377 
	C61.000000,91.000000 61.000458,91.000305 61.000458,91.000305 
	C61.187477,91.271095 61.374496,91.541878 61.791973,91.910965 
	C61.983082,92.456039 61.943733,92.902809 61.850929,93.682861 
z" />
	<path fill="#F6C324" opacity="1.000000" stroke="none" d="
M55.905312,84.334122 
	C56.605186,84.091034 57.243279,84.161003 58.135204,84.501236 
	C58.016151,85.033203 57.643269,85.294907 57.092411,85.850121 
	C56.557468,85.644814 56.200504,85.146004 55.905312,84.334122 
z" />
	<path fill="#FAFAFA" opacity="1.000000" stroke="none" d="
M427.824036,74.008209 
	C422.700958,74.000000 418.055664,73.995689 413.410492,73.974693 
	C413.093048,73.973267 412.776184,73.846741 412.459473,73.776443 
	C413.637604,68.279709 416.805511,65.929604 423.111389,65.872734 
	C428.706604,65.822281 431.667053,68.068535 433.089050,73.767021 
	C431.447113,73.849724 429.874512,73.928932 427.824036,74.008209 
z" />
	<path fill="#FBFBFB" opacity="1.000000" stroke="none" d="
M230.260239,86.731773 
	C224.084167,76.860901 228.116028,66.490570 238.015884,65.833618 
	C243.480362,65.471001 247.801422,68.027603 249.951767,72.895660 
	C252.032578,77.606323 250.889633,83.454948 247.171265,87.123810 
	C243.721069,90.528061 237.984467,91.329720 233.358566,88.974236 
	C232.342911,88.457069 231.462646,87.674011 230.260239,86.731773 
z" />
	<path fill="#FFEEF0" opacity="1.000000" stroke="none" d="
M36.990860,61.538910 
	C48.056019,61.538910 59.121174,61.538910 70.186333,61.538910 
	C70.194878,62.013382 70.203415,62.487854 70.211960,62.962322 
	C59.482086,64.707497 48.702095,64.411316 37.463982,62.564144 
	C37.019749,61.957539 37.005306,61.748226 36.990860,61.538910 
z" />
	<path fill="#FFF3F5" opacity="1.000000" stroke="none" d="
M36.048187,57.163414 
	C45.505520,55.683411 54.963455,55.297230 64.422241,56.453049 
	C64.438370,57.013004 64.454498,57.572960 64.470627,58.132915 
	C55.296146,58.329212 46.121666,58.525509 36.504025,58.432808 
	C36.027103,57.817394 36.022881,57.490597 36.048187,57.163414 
z" />
	<path fill="#FED2D9" opacity="1.000000" stroke="none" d="
M35.680412,57.158901 
	C36.022881,57.490597 36.027103,57.817394 36.075031,58.388214 
	C35.437500,59.048885 34.785797,59.465153 34.134094,59.881416 
	C34.901436,60.327606 35.668777,60.773796 36.713490,61.379448 
	C37.005306,61.748226 37.019749,61.957539 37.042419,62.481319 
	C34.475239,62.139168 31.899828,61.482552 29.324417,60.825935 
	C29.306732,60.372730 29.289047,59.919525 29.271362,59.466320 
	C31.285120,58.695675 33.298878,57.925034 35.680412,57.158901 
z" />
	<path fill="#FFF6F8" opacity="1.000000" stroke="none" d="
M82.690575,45.649807 
	C87.301933,44.176514 91.598190,42.906567 96.016075,41.600670 
	C96.339134,44.433254 96.500015,45.843838 96.771950,48.228127 
	C90.901047,49.205143 84.731117,50.231922 78.561188,51.258705 
	C78.307564,50.706841 78.053940,50.154980 77.800316,49.603115 
	C79.325371,48.353127 80.850426,47.103138 82.690575,45.649807 
z" />
	<path fill="#FFF0F2" opacity="1.000000" stroke="none" d="
M115.868370,40.829964 
	C113.746101,41.762287 111.965042,42.551548 109.986702,43.428234 
	C110.390419,34.417576 115.431290,31.455296 126.893028,34.258389 
	C122.728561,36.764259 119.469070,38.725578 115.868370,40.829964 
z" />
	<path fill="#FC7087" opacity="1.000000" stroke="none" d="
M77.972435,45.034771 
	C77.853256,44.875107 77.734085,44.715443 77.614906,44.555779 
	C77.712257,44.600437 77.809601,44.645100 77.953293,44.845932 
	C77.999626,45.002106 77.972435,45.034771 77.972435,45.034771 
z" />
	<path fill="#F6C324" opacity="1.000000" stroke="none" d="
M78.015778,44.988350 
	C78.148705,45.133877 78.265488,45.293163 78.382271,45.452446 
	C78.287018,45.406788 78.191765,45.361126 78.034470,45.175117 
	C77.972435,45.034771 77.999626,45.002106 78.015778,44.988350 
z" />
	<path fill="#F6C324" opacity="1.000000" stroke="none" d="
M76.560440,47.438927 
	C76.612740,47.516335 76.404633,47.542149 76.404633,47.542149 
	C76.404633,47.542149 76.508133,47.361515 76.560440,47.438927 
z" />
	<path fill="#FFF9F9" opacity="1.000000" stroke="none" d="
M109.935379,57.932865 
	C114.512344,55.929096 118.925797,53.060860 123.710587,52.155796 
	C128.873032,51.179298 132.006256,54.851162 132.222443,60.159088 
	C132.677719,71.337311 119.696426,84.918633 108.472839,85.006470 
	C102.967026,85.049561 99.748734,81.981911 99.737389,76.447083 
	C99.723953,69.890198 102.790787,64.689972 107.786819,60.213387 
	C108.449913,60.371246 108.592880,60.490707 108.541519,60.912506 
	C104.283577,68.224480 104.696327,69.464211 111.799957,71.593170 
	C111.978668,74.584503 112.160522,77.577644 112.380577,81.199364 
	C120.931297,77.838158 125.876892,72.385063 129.548904,64.223335 
	C125.672173,64.945068 122.725952,65.493561 120.878593,65.837479 
	C119.877937,63.175194 119.689079,60.415787 118.271141,59.437073 
	C116.220062,58.021362 113.433693,55.584286 110.447083,58.527428 
	C110.163506,58.196510 110.049446,58.064690 109.935379,57.932865 
z" />
	<path fill="#FFF9F9" opacity="1.000000" stroke="none" d="
M108.882599,58.888199 
	C109.071770,58.618042 109.260948,58.347889 109.692749,58.005302 
	C110.049446,58.064690 110.163506,58.196510 110.294968,58.687744 
	C110.112221,59.264732 109.898918,59.468529 109.475227,59.465721 
	C109.146202,59.144665 109.014397,59.016430 108.882599,58.888199 
z" />
	<path fill="#FFF9F9" opacity="1.000000" stroke="none" d="
M108.094391,60.070328 
	C108.059029,59.613659 108.236206,59.338448 108.647987,58.975719 
	C109.014397,59.016430 109.146202,59.144665 109.326248,59.631264 
	C109.168907,60.203983 108.956017,60.410831 108.735840,60.610168 
	C108.592880,60.490707 108.449913,60.371246 108.094391,60.070328 
z" />
	<path fill="#FFF7F8" opacity="1.000000" stroke="none" d="
M29.213860,75.497345 
	C30.066832,75.180862 30.816858,75.210403 31.537643,75.639572 
	C31.508404,76.039200 31.419456,76.208694 30.841312,76.172394 
	C29.942051,76.157463 29.620934,76.178841 29.299816,76.200211 
	C29.299816,76.200211 29.188166,76.421707 29.082733,76.487305 
	C29.021839,76.316383 29.066376,76.079872 29.213860,75.497345 
z" />
	<path fill="#FEFEFE" opacity="1.000000" stroke="none" d="
M29.374203,76.599983 
	C29.620934,76.178841 29.942051,76.157463 30.745792,76.178352 
	C30.635139,76.480331 30.041864,76.740044 29.374203,76.599983 
z" />
	<path fill="#FFF7F8" opacity="1.000000" stroke="none" d="
M82.582321,89.956688 
	C81.243988,88.712914 80.317589,87.483795 79.466911,86.355141 
	C80.481041,85.373001 81.843979,84.053047 83.517639,82.739380 
	C88.887550,84.858635 93.946754,86.971596 99.005951,89.084557 
	C98.840996,89.868858 98.676033,90.653168 98.511078,91.437469 
	C93.338799,90.948761 88.166527,90.460045 82.582321,89.956688 
z" />
	<path fill="#FC536F" opacity="1.000000" stroke="none" d="
M60.999821,90.999695 
	C61.092422,90.963097 61.185207,90.926796 61.139225,90.945404 
	C61.000458,91.000305 61.000000,91.000000 60.999821,90.999695 
z" />
	<path fill="#FC536F" opacity="1.000000" stroke="none" d="
M70.473877,91.444839 
	C70.529938,91.409264 70.417816,91.480408 70.473877,91.444839 
z" />
	<path fill="#FC607A" opacity="1.000000" stroke="none" d="
M73.399315,81.055374 
	C73.995216,80.841316 74.610146,80.908180 75.225067,80.975044 
	C75.159546,81.231560 75.054596,81.715012 75.034256,81.711479 
	C74.490311,81.616974 73.955055,81.472397 73.399315,81.055374 
z" />
	<path fill="#F6C324" opacity="1.000000" stroke="none" d="
M70.838409,80.140305 
	C70.755501,79.747688 70.829086,79.509117 70.902664,79.270538 
	C71.171806,79.536400 71.440948,79.802269 71.710091,80.068130 
	C71.471695,80.143539 71.233307,80.218948 70.838409,80.140305 
z" />
	<path fill="#F6C324" opacity="1.000000" stroke="none" d="
M76.268272,89.648499 
	C76.007011,89.633522 75.864616,89.495155 75.722221,89.356796 
	C75.943863,89.412903 76.165497,89.469009 76.268272,89.648499 
z" />
	<path fill="#F6C324" opacity="1.000000" stroke="none" d="
M64.994766,88.993362 
	C65.091896,88.956062 65.194099,88.925133 65.154297,88.951897 
	C65.012299,89.009590 64.999847,88.999733 64.994766,88.993362 
z" />
	<path fill="#F6C324" opacity="1.000000" stroke="none" d="
M108.541519,60.912506 
	C108.956017,60.410831 109.168907,60.203983 109.523476,59.824089 
	C109.898918,59.468529 110.112221,59.264732 110.464478,58.886841 
	C113.433693,55.584286 116.220062,58.021362 118.271141,59.437073 
	C119.689079,60.415787 119.877937,63.175194 120.878593,65.837479 
	C122.725952,65.493561 125.672173,64.945068 129.548904,64.223335 
	C125.876892,72.385063 120.931297,77.838158 112.380577,81.199364 
	C112.160522,77.577644 111.978668,74.584503 111.799957,71.593170 
	C104.696327,69.464211 104.283577,68.224480 108.541519,60.912506 
z" />
</svg>